<?xml version="1.0" encoding="utf-8"?>
<!-- Generator: Adobe Illustrator 23.0.1, SVG Export Plug-In . SVG Version: 6.00 Build 0)  -->
<svg version="1.1" id="Layer_1" xmlns="http://www.w3.org/2000/svg" xmlns:xlink="http://www.w3.org/1999/xlink" x="0px" y="0px"
	 viewBox="0 0 3025.99 3025.99" style="enable-background:new 0 0 3025.99 3025.99;" xml:space="preserve">
<style type="text/css">
	.st0{clip-path:url(#SVGID_2_);}
	.st1{fill:#2E3192;}
	.st2{fill:#FFFFFF;}
	.st3{fill:#2D333D;}
</style>
<g>
	<rect x="980.89" y="532.63" class="st2" width="180.87" height="1753.93"/>
	<rect x="1342.64" y="1486.33" class="st2" width="180.87" height="800.23"/>
	
		<rect x="1542.7" y="1532.92" transform="matrix(-1.836970e-16 1 -1 -1.836970e-16 3456.5442 190.277)" class="st2" width="180.87" height="580.99"/>
	<g>
		<polygon class="st2" points="2077.1,1409.59 1857.86,1409.59 2077.1,1628.83 		"/>
		<polygon class="st2" points="2077.1,1628.83 2296.34,1628.83 2077.1,1409.59 		"/>
	</g>
	<g>
		<polygon class="st2" points="2296.34,1628.83 2077.1,1628.83 2296.34,1848.08 		"/>
		<polygon class="st2" points="2296.34,1848.08 2515.58,1848.08 2296.34,1628.83 		"/>
	</g>
	<g>
		<polygon class="st2" points="2515.58,1848.08 2296.34,1848.08 2515.58,2067.32 		"/>
		<polygon class="st2" points="2515.58,2067.32 2734.82,2067.32 2515.58,1848.08 		"/>
	</g>
	<g>
		<polygon class="st2" points="2734.82,2067.32 2515.58,2067.32 2734.82,2286.56 		"/>
		<polygon class="st2" points="2734.82,2286.56 2954.06,2286.56 2734.82,2067.32 		"/>
	</g>
	<polygon class="st2" points="1342.64,1332.86 1561.88,1332.86 1342.64,1113.62 	"/>
	<polygon class="st2" points="1561.88,1552.1 1781.12,1552.1 1561.88,1332.86 	"/>
	<polygon class="st2" points="1342.64,1552.1 1561.88,1552.1 1342.64,1332.86 	"/>
	<polygon class="st2" points="1561.88,1332.86 1342.64,1332.86 1561.88,1552.1 	"/>
	<g>
		<g>
			<polygon class="st2" points="284.8,1409.59 65.56,1409.59 284.8,1628.83 			"/>
			<polygon class="st2" points="284.8,1628.83 504.04,1628.83 284.8,1409.59 			"/>
		</g>
		<g>
			<polygon class="st2" points="504.04,1628.83 284.8,1628.83 504.04,1848.08 			"/>
			<polygon class="st2" points="504.04,1848.08 723.28,1848.08 504.04,1628.83 			"/>
		</g>
		<g>
			<polygon class="st2" points="723.28,1848.08 504.04,1848.08 723.28,2067.32 			"/>
			<polygon class="st2" points="723.28,2067.32 942.52,2067.32 723.28,1848.08 			"/>
		</g>
		<g>
			<polygon class="st2" points="942.52,2067.32 723.28,2067.32 942.52,2286.56 			"/>
			<polygon class="st2" points="942.52,2286.56 1161.76,2286.56 942.52,2067.32 			"/>
		</g>
	</g>
	<g>
		<polygon class="st2" points="723.28,1409.59 504.04,1409.59 723.28,1628.83 		"/>
		<polygon class="st2" points="723.28,1628.83 942.52,1628.83 723.28,1409.59 		"/>
	</g>
	<g>
		<polygon class="st2" points="942.52,1628.83 723.28,1628.83 942.52,1848.08 		"/>
		<polygon class="st2" points="942.52,1848.08 1161.76,1848.08 942.52,1628.83 		"/>
	</g>
	<g>
		<polygon class="st2" points="723.28,1409.59 504.04,1409.59 723.28,1628.83 		"/>
		<polygon class="st2" points="723.28,1628.83 942.52,1628.83 723.28,1409.59 		"/>
	</g>
	<g>
		<polygon class="st2" points="942.52,1628.83 723.28,1628.83 942.52,1848.08 		"/>
		<polygon class="st2" points="942.52,1848.08 1161.76,1848.08 942.52,1628.83 		"/>
	</g>
	<g>
		<polygon class="st2" points="1638.61,971.11 1419.37,971.11 1638.61,1190.35 		"/>
		<polygon class="st2" points="1638.61,1190.35 1857.86,1190.35 1638.61,971.11 		"/>
	</g>
	<g>
		<polygon class="st2" points="1419.37,751.87 1200.13,751.87 1419.37,971.11 		"/>
		<polygon class="st2" points="1419.37,971.11 1638.61,971.11 1419.37,751.87 		"/>
	</g>
	<g>
		<polygon class="st2" points="1200.13,532.63 980.89,532.63 1200.13,751.87 		"/>
		<polygon class="st2" points="1200.13,751.87 1419.37,751.87 1200.13,532.63 		"/>
	</g>
	<g>
		<polygon class="st2" points="1857.86,1190.35 1638.61,1190.35 1857.86,1409.59 		"/>
		<polygon class="st2" points="1857.86,1409.59 2077.1,1409.59 1857.86,1190.35 		"/>
	</g>
	<g>
		<polygon class="st2" points="1161.76,532.63 980.89,532.63 1161.76,713.5 		"/>
		<polygon class="st2" points="1419.37,751.87 1342.64,675.13 1342.64,894.37 1419.37,971.11 1638.61,971.11 		"/>
	</g>
	<g>
		<polygon class="st2" points="1962,1732.97 1742.75,1732.97 1962,1952.21 		"/>
		<polygon class="st2" points="1962,1952.21 2181.24,1952.21 1962,1732.97 		"/>
	</g>
	<g>
		<polygon class="st2" points="2181.24,1952.22 1962,1952.22 2181.24,2171.46 		"/>
		<polygon class="st2" points="2181.24,2171.46 2400.48,2171.46 2181.24,1952.22 		"/>
	</g>
	<g>
		<polygon class="st2" points="2296.34,2067.32 2077.1,2067.32 2296.34,2286.56 		"/>
		<polygon class="st2" points="2296.34,2286.56 2515.58,2286.56 2296.34,2067.32 		"/>
	</g>
	<polygon class="st2" points="1161.76,1848.08 942.52,1848.08 1161.76,2067.32 	"/>
</g>
</svg>
